<?xml version="1.0" standalone="no"?>
<!DOCTYPE svg PUBLIC "-//W3C//DTD SVG 20010904//EN"
 "http://www.w3.org/TR/2001/REC-SVG-20010904/DTD/svg10.dtd">
<svg version="1.0" xmlns="http://www.w3.org/2000/svg"
 width="256.000000pt" height="256.000000pt" viewBox="0 0 256.000000 256.000000"
 preserveAspectRatio="xMidYMid meet">

<g transform="translate(0.000000,256.000000) scale(0.100000,-0.100000)"
stroke="none">
<path d="M1913 2293 c15 -2 37 -2 50 0 12 2 0 4 -28 4 -27 0 -38 -2 -22 -4z"/>
<path d="M1848 2283 c7 -3 16 -2 19 1 4 3 -2 6 -13 5 -11 0 -14 -3 -6 -6z"/>
<path d="M2035 2276 c22 -7 50 -18 63 -25 12 -6 22 -9 22 -6 0 10 -83 45 -105
44 -11 0 -2 -6 20 -13z"/>
<path d="M1800 2270 c-8 -5 -10 -10 -5 -10 6 0 17 5 25 10 8 5 11 10 5 10 -5
0 -17 -5 -25 -10z"/>
<path d="M1741 2236 c-34 -25 -81 -83 -81 -99 0 -6 12 8 26 29 15 21 34 44 43
51 38 27 56 42 50 43 -3 0 -20 -11 -38 -24z"/>
<path d="M2157 2210 c18 -19 39 -51 47 -70 8 -19 15 -29 16 -22 0 23 -27 66
-62 97 l-33 30 32 -35z"/>
<path d="M1653 2075 c0 -27 2 -38 4 -22 2 15 2 37 0 50 -2 12 -4 0 -4 -28z"/>
<path d="M1852 2074 c4 -21 22 -23 26 -1 2 10 -3 17 -13 17 -10 0 -15 -6 -13
-16z"/>
<path d="M1924 2079 c-7 -12 15 -31 28 -23 4 3 8 12 8 20 0 17 -26 19 -36 3z"/>
<path d="M2002 2074 c4 -21 22 -23 26 -1 2 10 -3 17 -13 17 -10 0 -15 -6 -13
-16z"/>
<path d="M2222 2070 c0 -14 2 -19 5 -12 2 6 2 18 0 25 -3 6 -5 1 -5 -13z"/>
<path d="M2206 2017 c-4 -16 -25 -49 -48 -75 l-42 -47 38 35 c41 38 70 84 63
103 -2 7 -7 -1 -11 -16z"/>
<path d="M1660 2017 c0 -17 29 -63 57 -87 l28 -25 -26 30 c-15 17 -34 44 -42
60 -9 17 -16 26 -17 22z"/>
<path d="M1234 1965 c-18 -18 -31 -23 -52 -19 -19 4 -36 -1 -56 -17 -25 -20
-27 -26 -22 -63 4 -23 8 -53 9 -68 1 -16 5 -28 9 -28 5 0 25 -16 47 -35 21
-19 42 -35 47 -35 5 0 19 16 32 36 12 19 27 32 32 29 12 -7 70 22 70 35 0 16
28 12 50 -7 26 -22 26 -43 0 -43 -11 0 -20 -5 -20 -11 0 -6 9 -9 19 -6 15 3
21 -1 24 -17 2 -11 5 5 6 38 1 49 5 61 26 78 30 24 33 66 6 99 -25 31 -83 30
-119 -3 l-26 -23 18 29 c18 28 18 30 0 43 -28 21 -72 16 -100 -12z"/>
<path d="M1750 1905 c0 -7 61 -37 66 -33 2 3 -12 12 -31 21 -19 9 -35 15 -35
12z"/>
<path d="M2035 1870 c-13 -6 -15 -9 -5 -9 8 0 22 4 30 9 18 12 2 12 -25 0z"/>
<path d="M1838 1863 c7 -3 16 -2 19 1 4 3 -2 6 -13 5 -11 0 -14 -3 -6 -6z"/>
<path d="M1903 1853 c20 -2 54 -2 75 0 20 2 3 4 -38 4 -41 0 -58 -2 -37 -4z"/>
<path d="M1698 1829 c-10 -5 -18 -15 -18 -20 0 -6 7 -3 16 6 21 20 73 16 88
-7 8 -14 7 -24 -3 -40 -13 -21 -13 -22 2 -9 51 42 -26 105 -85 70z"/>
<path d="M1560 1765 c-9 -11 -10 -19 -3 -26 8 -8 11 -6 10 7 -2 14 4 19 20 18
12 0 20 3 17 8 -8 13 -30 9 -44 -7z"/>
<path d="M1680 1771 c0 -16 38 -33 63 -28 19 4 18 4 -5 6 -15 0 -34 8 -42 17
-9 8 -16 11 -16 5z"/>
<path d="M1070 1751 c-16 -32 -12 -57 17 -85 26 -27 69 -44 80 -32 4 3 -3 6
-15 6 -30 0 -82 47 -82 75 0 13 7 31 16 39 8 9 11 16 5 16 -6 0 -15 -9 -21
-19z"/>
<path d="M1306 1741 c-19 -7 -18 -8 4 -14 25 -6 40 -2 40 14 0 11 -17 11 -44
0z"/>
<path d="M1130 1726 c0 -2 8 -10 18 -17 15 -13 16 -12 3 4 -13 16 -21 21 -21
13z"/>
<path d="M1455 1672 c39 -24 132 -125 190 -207 26 -36 49 -65 52 -65 2 0 -15
28 -39 62 -53 77 -198 228 -218 228 -8 0 -1 -8 15 -18z"/>
<path d="M1431 1660 c0 -8 4 -22 9 -30 12 -18 12 -2 0 25 -6 13 -9 15 -9 5z"/>
<path d="M1121 1604 c0 -11 3 -14 6 -6 3 7 2 16 -1 19 -3 4 -6 -2 -5 -13z"/>
<path d="M1451 1594 c0 -11 3 -14 6 -6 3 7 2 16 -1 19 -3 4 -6 -2 -5 -13z"/>
<path d="M1106 1565 c-9 -26 -7 -32 5 -12 6 10 9 21 6 23 -2 3 -7 -2 -11 -11z"/>
<path d="M1470 1576 c0 -2 7 -7 16 -10 8 -3 12 -2 9 4 -6 10 -25 14 -25 6z"/>
<path d="M1270 1540 c0 -10 10 -26 23 -35 21 -15 22 -14 25 4 5 29 115 34 151
7 l26 -19 -23 24 c-19 21 -30 23 -85 21 -35 -2 -75 2 -90 7 -24 9 -27 8 -27
-9z"/>
<path d="M1085 1510 c-4 -11 -17 -28 -30 -36 l-24 -16 19 -49 c42 -107 87
-179 110 -179 14 0 58 62 65 93 5 20 3 27 -7 27 -22 0 -92 54 -118 90 -19 27
-21 35 -11 57 7 14 10 28 7 30 -2 2 -7 -5 -11 -17z"/>
<path d="M1393 1485 c-3 -9 -3 -19 1 -22 3 -4 6 1 6 10 0 22 11 21 46 -4 l29
-21 -28 26 c-32 30 -45 32 -54 11z"/>
<path d="M1320 1449 c0 -14 -11 -41 -25 -60 -43 -59 -47 -78 -38 -159 7 -65
11 -76 33 -87 23 -12 23 -13 4 -13 -34 0 -45 23 -51 105 l-6 76 -21 -37 c-51
-91 -92 -68 -161 91 l-34 80 -63 3 c-34 2 -82 -2 -107 -9 -109 -31 -289 -184
-380 -324 -57 -87 -72 -133 -47 -147 11 -6 14 -17 11 -36 -3 -15 4 -3 15 26
16 38 27 52 41 52 49 0 253 -87 336 -143 l52 -35 40 82 c41 85 81 197 81 228
0 10 4 18 9 18 31 0 -73 -272 -125 -327 -17 -18 -26 -33 -20 -33 6 0 50 -5 97
-10 142 -16 227 11 243 76 9 33 23 22 37 -26 12 -39 31 -51 45 -28 4 6 3 8 -3
5 -9 -6 -53 64 -53 84 0 24 28 4 50 -36 22 -41 25 -43 42 -28 38 34 65 -11 31
-51 l-18 -21 23 20 c38 31 51 -9 18 -55 -6 -8 -1 -6 12 4 18 16 22 16 22 4 0
-9 3 -30 6 -47 6 -28 2 -36 -36 -73 -24 -22 -34 -35 -22 -29 18 9 27 8 47 -5
25 -16 25 -16 25 14 0 28 4 32 43 42 23 6 55 15 70 20 26 9 67 4 142 -16 11
-3 6 3 -12 15 -63 40 -77 77 -128 355 -20 105 -45 221 -56 257 -20 64 -88 196
-89 172 0 -6 -8 -9 -18 -6 -17 4 -18 -1 -11 -59 18 -140 -26 -189 -90 -99 -32
45 -25 49 12 6 25 -28 38 -37 51 -32 16 7 18 18 14 97 -3 67 -9 95 -21 107
-16 16 -17 16 -17 -8z m198 -349 c0 -8 -13 12 -28 45 -16 33 -29 67 -29 75 0
8 13 -12 29 -45 16 -33 28 -67 28 -75z m-98 -479 c0 -12 -20 -25 -27 -18 -7 7
6 27 18 27 5 0 9 -4 9 -9z"/>
<path d="M1721 1355 c12 -22 26 -44 32 -50 15 -16 -20 48 -38 70 -9 11 -7 2 6
-20z"/>
<path d="M1775 1260 c9 -16 18 -30 21 -30 2 0 -2 14 -11 30 -9 17 -18 30 -21
30 -2 0 2 -13 11 -30z"/>
<path d="M1832 1155 c12 -24 23 -43 26 -41 4 5 -36 86 -43 86 -3 0 5 -20 17
-45z"/>
<path d="M1871 1075 c0 -5 6 -21 14 -35 8 -14 14 -20 14 -15 0 6 -6 21 -14 35
-8 14 -14 21 -14 15z"/>
<path d="M1932 900 c0 -14 2 -19 5 -12 2 6 2 18 0 25 -3 6 -5 1 -5 -13z"/>
<path d="M421 884 c0 -11 3 -14 6 -6 3 7 2 16 -1 19 -3 4 -6 -2 -5 -13z"/>
<path d="M1943 810 c0 -36 2 -50 4 -32 2 17 2 47 0 65 -2 17 -4 3 -4 -33z"/>
<path d="M411 844 c0 -11 3 -14 6 -6 3 7 2 16 -1 19 -3 4 -6 -2 -5 -13z"/>
<path d="M738 813 c17 -2 47 -2 65 0 17 2 3 4 -33 4 -36 0 -50 -2 -32 -4z"/>
<path d="M402 785 c0 -16 2 -22 5 -12 2 9 2 23 0 30 -3 6 -5 -1 -5 -18z"/>
<path d="M1910 689 c-18 -33 -71 -59 -125 -60 -50 -2 -49 -2 15 -9 36 -4 67
-6 69 -4 2 2 -4 4 -14 4 -13 0 -9 6 15 23 31 20 70 67 57 67 -4 0 -11 -9 -17
-21z"/>
<path d="M1389 683 c-13 -16 -12 -17 4 -4 16 13 21 21 13 21 -2 0 -10 -8 -17
-17z"/>
<path d="M402 660 c0 -14 2 -19 5 -12 2 6 2 18 0 25 -3 6 -5 1 -5 -13z"/>
<path d="M1898 603 c7 -3 16 -2 19 1 4 3 -2 6 -13 5 -11 0 -14 -3 -6 -6z"/>
<path d="M1948 593 c7 -3 16 -2 19 1 4 3 -2 6 -13 5 -11 0 -14 -3 -6 -6z"/>
<path d="M1988 583 c6 -2 18 -2 25 0 6 3 1 5 -13 5 -14 0 -19 -2 -12 -5z"/>
<path d="M455 551 c29 -32 102 -77 111 -68 3 2 -10 10 -28 18 -18 7 -51 29
-73 48 l-40 35 30 -33z"/>
<path d="M2048 573 c12 -2 20 -9 17 -14 -8 -11 6 -12 23 0 10 6 8 10 -10 14
-12 4 -30 6 -38 6 -8 -1 -5 -4 8 -6z"/>
<path d="M1260 550 c-8 -5 -10 -10 -5 -10 6 0 17 5 25 10 8 5 11 10 5 10 -5 0
-17 -5 -25 -10z"/>
<path d="M2008 537 c22 -7 32 -16 32 -30 0 -15 -5 -18 -26 -14 -16 3 -22 1
-16 -5 20 -20 47 -4 48 29 1 29 -1 31 -35 30 l-36 0 33 -10z"/>
<path d="M1165 521 c-17 -7 -16 -9 9 -15 16 -4 31 -5 34 -1 3 3 -1 5 -9 5 -11
0 -11 2 1 10 13 9 13 10 0 9 -8 0 -24 -4 -35 -8z"/>
<path d="M1935 520 c-27 -4 -41 -8 -29 -8 11 -1 29 -8 39 -16 16 -12 17 -16 6
-30 -7 -9 -9 -16 -3 -16 13 0 23 26 16 43 -3 8 5 18 18 25 25 12 25 12 -47 2z"/>
<path d="M1118 503 c7 -3 16 -2 19 1 4 3 -2 6 -13 5 -11 0 -14 -3 -6 -6z"/>
<path d="M1068 493 c6 -2 18 -2 25 0 6 3 1 5 -13 5 -14 0 -19 -2 -12 -5z"/>
<path d="M1235 490 c11 -5 27 -9 35 -9 9 0 8 4 -5 9 -11 5 -27 9 -35 9 -9 0
-8 -4 5 -9z"/>
<path d="M1890 490 c-8 -5 -10 -10 -5 -10 6 0 17 5 25 10 8 5 11 10 5 10 -5 0
-17 -5 -25 -10z"/>
<path d="M1018 483 c6 -2 18 -2 25 0 6 3 1 5 -13 5 -14 0 -19 -2 -12 -5z"/>
<path d="M1815 480 c-3 -5 -3 -10 2 -10 4 0 1 -5 -7 -11 -11 -8 -9 -9 10 -4
41 12 45 11 45 -10 0 -14 -6 -20 -23 -19 -16 0 -20 -2 -12 -10 14 -14 44 4 49
29 5 30 -49 60 -64 35z m32 -6 c-3 -3 -12 -4 -19 -1 -8 3 -5 6 6 6 11 1 17 -2
13 -5z"/>
<path d="M588 473 c7 -3 16 -2 19 1 4 3 -2 6 -13 5 -11 0 -14 -3 -6 -6z"/>
<path d="M953 473 c9 -2 23 -2 30 0 6 3 -1 5 -18 5 -16 0 -22 -2 -12 -5z"/>
<path d="M1305 470 c11 -5 27 -9 35 -9 9 0 8 4 -5 9 -11 5 -27 9 -35 9 -9 0
-8 -4 5 -9z"/>
<path d="M628 463 c6 -2 18 -2 25 0 6 3 1 5 -13 5 -14 0 -19 -2 -12 -5z"/>
<path d="M873 463 c9 -2 25 -2 35 0 9 3 1 5 -18 5 -19 0 -27 -2 -17 -5z"/>
<path d="M723 453 c20 -2 54 -2 75 0 20 2 3 4 -38 4 -41 0 -58 -2 -37 -4z"/>
<path d="M1375 450 c11 -5 27 -9 35 -9 9 0 8 4 -5 9 -11 5 -27 9 -35 9 -9 0
-8 -4 5 -9z"/>
<path d="M1752 440 c-12 -5 -30 -7 -40 -4 -13 5 -14 4 -4 -4 11 -7 7 -11 -13
-16 -15 -4 -25 -9 -22 -12 3 -3 21 1 40 10 39 16 47 13 47 -17 0 -15 -5 -18
-26 -14 -16 3 -22 1 -16 -5 19 -19 47 -4 47 25 1 16 7 32 15 37 19 12 2 12
-28 0z"/>
<path d="M1445 430 c11 -5 27 -9 35 -9 9 0 8 4 -5 9 -11 5 -27 9 -35 9 -9 0
-8 -4 5 -9z"/>
<path d="M1515 410 c11 -5 27 -9 35 -9 9 0 8 4 -5 9 -11 5 -27 9 -35 9 -9 0
-8 -4 5 -9z"/>
<path d="M1593 387 c17 -5 37 -6 48 -1 14 7 7 9 -28 10 -43 1 -45 0 -20 -9z"/>
</g>
</svg>
