<svg width="25" height="25" viewBox="0 0 25 25" fill="none" xmlns="http://www.w3.org/2000/svg">
<path d="M3.24163 15.7417C1.45417 15.7417 0 14.2874 0 12.5C0 10.7125 1.45417 9.25836 3.24163 9.25836C5.02926 9.25836 6.48348 10.7125 6.48348 12.5C6.48348 14.2874 5.02931 15.7417 3.24163 15.7417Z" fill="#A3A5A9"/>
<path d="M12.4999 15.7417C10.7125 15.7417 9.2583 14.2875 9.2583 12.5001C9.2583 10.7126 10.7125 9.25842 12.4999 9.25842C14.2874 9.25842 15.7416 10.7126 15.7416 12.5001C15.7416 14.2875 14.2874 15.7417 12.4999 15.7417Z" fill="#A3A5A9"/>
<path d="M21.7582 15.7417C19.9706 15.7417 18.5164 14.2875 18.5164 12.5001C18.5164 10.7126 19.9705 9.25842 21.7582 9.25842C23.5457 9.25842 24.9998 10.7126 24.9998 12.5001C24.9998 14.2875 23.5457 15.7417 21.7582 15.7417Z" fill="#A3A5A9"/>
</svg>
