<svg width="25" height="25" viewBox="0 0 25 25" fill="none" xmlns="http://www.w3.org/2000/svg">
<path d="M17.4918 8.25524L10.7205 14.9874L7.49438 11.5103C7.06896 11.0665 6.39538 11.0665 6.00541 11.4733C5.57998 11.9172 5.57998 12.62 5.96995 13.0269L9.94056 17.2807C10.1533 17.5027 10.4369 17.6136 10.685 17.6136C10.9332 17.6136 11.2168 17.5027 11.4295 17.3177L18.9808 9.84579C19.4062 9.43891 19.4417 8.7361 19.0162 8.29223C18.5908 7.84835 17.9172 7.84835 17.4918 8.25524Z" />
<!-- <path d="M21.875 12.5C21.875 14.3542 21.3252 16.1668 20.295 17.7085C19.2649 19.2502 17.8007 20.4518 16.0877 21.1614C14.3746 21.8709 12.4896 22.0566 10.671 21.6949C8.85246 21.3331 7.182 20.4402 5.87088 19.1291C4.55976 17.818 3.66688 16.1475 3.30514 14.329C2.94341 12.5104 3.12906 10.6254 3.83863 8.91234C4.5482 7.19928 5.74982 5.73511 7.29153 4.70497C8.83324 3.67483 10.6458 3.125 12.5 3.125H14.0625V0H12.5C10.0277 0 7.61099 0.733112 5.55538 2.10663C3.49976 3.48015 1.89761 5.43238 0.951511 7.71646C0.00541601 10.0005 -0.242126 12.5139 0.24019 14.9386C0.722505 17.3634 1.91301 19.5907 3.66117 21.3388C5.40933 23.087 7.63661 24.2775 10.0614 24.7598C12.4861 25.2421 14.9995 24.9946 17.2835 24.0485C19.5676 23.1024 21.5199 21.5002 22.8934 19.4446C24.2669 17.389 25 14.9723 25 12.5V10.9375H21.875V12.5Z" /> -->
<!-- <path d="M3.125 12.5C3.125 10.6458 3.67483 8.83324 4.70497 7.29153C5.73511 5.74982 7.19928 4.54821 8.91234 3.83863C10.6254 3.12906 12.5104 2.94341 14.329 3.30514C16.1475 3.66688 17.818 4.55976 19.1291 5.87088C20.4402 7.18199 21.3331 8.85246 21.6949 10.671C22.0566 12.4896 21.8709 14.3746 21.1614 16.0877C20.4518 17.8007 19.2502 19.2649 17.7085 20.295C16.1668 21.3252 14.3542 21.875 12.5 21.875L10.9375 21.875L10.9375 25L12.5 25C14.9723 25 17.389 24.2669 19.4446 22.8934C21.5002 21.5199 23.1024 19.5676 24.0485 17.2835C24.9946 14.9995 25.2421 12.4861 24.7598 10.0614C24.2775 7.63661 23.087 5.40933 21.3388 3.66117C19.5907 1.91301 17.3634 0.722504 14.9386 0.240189C12.5139 -0.242125 10.0005 0.00541634 7.71645 0.951512C5.43238 1.89761 3.48015 3.49977 2.10663 5.55538C0.733111 7.61099 -1.54733e-06 10.0277 -1.3312e-06 12.5L-1.1946e-06 14.0625L3.125 14.0625L3.125 12.5Z" /> -->
</svg>
